<svg t="1719820822215" class="icon" viewBox="0 0 1024 1024" version="1.1" xmlns="http://www.w3.org/2000/svg" p-id="12660" xmlns:xlink="http://www.w3.org/1999/xlink" width="30" height="30"><path d="M433.946401 0.126464c-25.996789-1.999753-47.994072 19.99753-49.993825 45.994319s19.99753 47.994072 45.994319 49.993825c263.967396 11.998518 487.939732 233.971101 497.938497 497.938497 1.999753 25.996789 21.997283 45.994319 47.994072 45.994319h1.999753c25.996789-1.999753 47.994072-23.997036 45.994319-49.993825C1009.875265 278.092131 745.907869 14.124735 433.946401 0.126464z m1.999753 191.976288c-25.996789-1.999753-49.993825 17.997777-51.993578 43.994566s17.997777 49.993825 43.994566 51.993578c159.98024 9.998765 297.963197 147.981722 307.961962 307.961962 1.999753 23.997036 21.997283 43.994566 47.994072 43.994566h3.999506c25.996789-1.999753 45.994319-23.997036 43.994566-51.993578-13.998271-203.974806-191.976288-381.952823-395.951094-395.951094z m-147.981722 255.968384h-47.994072c-25.996789 0-47.994072 21.997283-47.994072 47.994072s21.997283 47.994072 47.994072 47.994072h47.994072c105.986909 0 191.976288 85.989379 191.976288 191.976288s-85.989379 191.976288-191.976288 191.976288-191.976288-85.989379-191.976288-191.976288V240.096824c0-25.996789-21.997283-47.994072-47.994072-47.994072S0 214.100035 0 240.096824v495.938744c0 157.980487 129.983945 287.964432 287.964432 287.964432s287.964432-129.983945 287.964432-287.964432-129.983945-287.964432-287.964432-287.964432z" p-id="12661" fill="#eee"></path></svg>