<svg t="1720807255277" class="icon" viewBox="0 0 1024 1024" version="1.1" xmlns="http://www.w3.org/2000/svg" p-id="16743" width="25" height="25" xmlns:xlink="http://www.w3.org/1999/xlink"><path d="M152.365176 104.150058l65.435315 734.146473 293.749254 81.553411 294.51571-81.664951 65.568345-734.034932L152.381549 104.150058 152.365176 104.150058 152.365176 104.150058zM729.161948 344.259648 384.611681 344.259648l8.206916 92.206028 328.169181 0L696.256514 712.889333l-184.690396 51.17759L327.102896 712.889333l-12.607132-141.407614 90.410126 0 6.412037 71.879074 100.263541 27.01426 0.228197-0.064468 100.31573-27.077705 10.409071-116.749004L310.478264 526.483876l-24.288173-272.262894 451.030393 0L729.161948 344.259648 729.161948 344.259648 729.161948 344.259648zM729.161948 344.259648" fill="#eeeeee" p-id="16744"></path></svg>