<svg t="1720807527063" class="icon" viewBox="0 0 1024 1024" version="1.1" xmlns="http://www.w3.org/2000/svg" p-id="23191" width="25" height="25"><path d="M896 192c35.348 0 64 28.652 64 64v512c0 35.348-28.652 64-64 64H128c-35.348 0-64-28.652-64-64V256c0-35.348 28.652-64 64-64z m-768-64C57.309 128 0 185.309 0 256v512c0 70.691 57.309 128 128 128h768c70.691 0 128-57.309 128-128V256c0-70.691-57.309-128-128-128z m0 0" p-id="23192" fill="#eeeeee"></path><path d="M585.344 521.344a32 32 0 0 1 45.312 0L736 626.754l105.344-105.41c12.511-12.512 32.8-12.512 45.312 0 12.512 12.511 12.512 32.8 0 45.312l-128 128a32 32 0 0 1-45.312 0l-128-128a32 32 0 0 1 0-45.312z m0 0" p-id="23193" fill="#eeeeee"></path><path d="M736 320c17.672 0 32 14.328 32 32v256c0 17.672-14.328 32-32 32s-32-14.328-32-32V352c0-17.672 14.328-32 32-32z m0 0" p-id="23194" fill="#eeeeee"></path><path d="M227.84 704V448.64h3.586l91.39 207.298h49.536l90.878-207.364h3.586V704h68.672V320.062h-76.8l-109.442 249.22h-2.492l-109.442-249.22H160V704z m0 0" p-id="23195" fill="#eeeeee"></path></svg>