<svg t="1720806328646" class="icon" viewBox="0 0 1027 1024" version="1.1" xmlns="http://www.w3.org/2000/svg" p-id="6034" width="25" height="25" xmlns:xlink="http://www.w3.org/1999/xlink"><path d="M321.828571 226.742857c-14.628571-14.628571-36.571429-14.628571-51.2 0L7.314286 482.742857c-14.628571 14.628571-14.628571 36.571429 0 51.2l256 256c14.628571 14.628571 36.571429 14.628571 51.2 0 14.628571-14.628571 14.628571-36.571429 0-51.2L87.771429 512l234.057142-234.057143c7.314286-14.628571 7.314286-36.571429 0-51.2z m263.314286 0c-14.628571 0-36.571429 7.314286-43.885714 29.257143l-131.657143 497.371429c-7.314286 21.942857 7.314286 36.571429 29.257143 43.885714s36.571429-7.314286 43.885714-29.257143l131.657143-497.371429c7.314286-14.628571-7.314286-36.571429-29.257143-43.885714z m431.542857 256l-256-256c-14.628571-14.628571-36.571429-14.628571-51.2 0-14.628571 14.628571-14.628571 36.571429 0 51.2L936.228571 512l-234.057142 234.057143c-14.628571 14.628571-14.628571 36.571429 0 51.2 14.628571 14.628571 36.571429 14.628571 51.2 0l256-256c14.628571-14.628571 14.628571-43.885714 7.314285-58.514286z" fill="#eee" p-id="6035"></path></svg>