<svg t="1735403605248" class="icon" viewBox="0 0 1024 1024" version="1.1" xmlns="http://www.w3.org/2000/svg" p-id="8822" width="30" height="30"><path d="M902.613333 693.504a54.058667 54.058667 0 0 1 17.109334 92.074667l-164.864 141.653333a54.058667 54.058667 0 0 1-36.266667 11.349333c-12.842667 0-25.301333-4.608-35.114667-12.970666l-88.661333-75.690667a54.058667 54.058667 0 1 1 70.826667-80.554667l54.058666 45.397334 129.749334-111.36a54.058667 54.058667 0 0 1 53.162666-9.898667zM726.912 85.333333A169.173333 169.173333 0 0 1 896 254.165333v394.24a96.725333 96.725333 0 0 0-74.24 22.613334l-11.136 9.472V254.165333c0-46.08-37.546667-83.626667-83.712-83.626666H254.421333c-46.165333 0-83.712 37.546667-83.712 83.626666v473.002667c0 46.08 37.546667 83.626667 83.712 83.626667h274.133334c1.578667 27.221333 14.677333 52.821333 36.352 70.058666l3.072 2.261334 15.104 12.885333H254.421333A169.173333 169.173333 0 0 1 85.333333 727.168V254.165333A169.173333 169.173333 0 0 1 254.421333 85.333333h472.490667z m-15.488 286.08a37.461333 37.461333 0 0 1 7.466667 49.621334l-144 174.848a100.266667 100.266667 0 0 1-70.272 36.864 97.92 97.92 0 0 1-76.586667-32l-2.901333-3.157334a38.016 38.016 0 0 0-28.8-12.074666 38.016 38.016 0 0 0-28.8 12.074666l-51.541334 55.893334a37.717333 37.717333 0 0 1-27.392 11.818666 37.461333 37.461333 0 0 1-28.8-63.104l52.138667-55.594666a113.194667 113.194667 0 0 1 165.589333 0l2.901334 3.2c5.12 5.290667 12.202667 8.234667 19.626666 8.064a26.794667 26.794667 0 0 0 18.688-9.216l142.549334-174.848a37.461333 37.461333 0 0 1 50.133333-2.389334zM348.970667 314.538667a66.645333 66.645333 0 1 1 0 133.290666 66.645333 66.645333 0 0 1 0-133.290666z" fill="#eee" p-id="8823"></path></svg>