<svg t="1719920428778" class="icon" viewBox="0 0 1024 1024" version="1.1" xmlns="http://www.w3.org/2000/svg" p-id="21833" width="30" height="30"><path d="M7.25325 705.466473a503.508932 503.508932 0 0 0 75.26742 121.391295 95.499302 95.499302 0 0 0 93.211173 31.07039 168.59902 168.59902 0 0 1 114.526906 16.257763 148.487566 148.487566 0 0 1 71.052444 83.456515 91.163899 91.163899 0 0 0 75.989987 61.538643 578.053784 578.053784 0 0 0 148.969278 0A91.163899 91.163899 0 0 0 662.380873 957.642436a148.487566 148.487566 0 0 1 72.256723-83.456515 168.59902 168.59902 0 0 1 114.406478-16.257763 95.61973 95.61973 0 0 0 93.331601-31.07039 503.508932 503.508932 0 0 0 75.267419-121.391295 84.29951 84.29951 0 0 0-18.545892-94.897163 138.251197 138.251197 0 0 1 0-197.140426 84.29951 84.29951 0 0 0 18.545892-94.897163 503.508932 503.508932 0 0 0-75.869559-121.391295 95.499302 95.499302 0 0 0-93.211173-31.070391A168.59902 168.59902 0 0 1 734.637596 149.812272a148.848849 148.848849 0 0 1-72.256723-83.456515A91.163899 91.163899 0 0 0 586.631741 4.817115a581.907476 581.907476 0 0 0-148.969277 0A91.163899 91.163899 0 0 0 361.311193 66.355757a148.848849 148.848849 0 0 1-71.413728 83.456515 168.59902 168.59902 0 0 1-114.406478 16.257763 95.378874 95.378874 0 0 0-93.3316 31.070391A503.508932 503.508932 0 0 0 7.25325 318.531721a84.29951 84.29951 0 0 0 18.545893 94.897163 140.057615 140.057615 0 0 1 41.30676 98.509999 140.057615 140.057615 0 0 1-41.30676 98.630427A84.29951 84.29951 0 0 0 7.25325 705.466473z m929.462315-349.240828a219.901294 219.901294 0 0 0 0 312.028615c0.842995 0.842995 2.649413 3.010697 1.806418 5.057971a427.398517 427.398517 0 0 1-63.104205 101.520696 9.513802 9.513802 0 0 1-9.032091 2.167702 255.547944 255.547944 0 0 0-173.777418 24.928569 231.823653 231.823653 0 0 0-111.275354 130.302957 6.984817 6.984817 0 0 1-6.021394 4.937543 492.790851 492.790851 0 0 1-126.328837 0 6.984817 6.984817 0 0 1-6.021394-4.937543 231.823653 231.823653 0 0 0-111.275353-130.302957 255.668372 255.668372 0 0 0-120.427872-30.468252 258.919924 258.919924 0 0 0-52.747408 5.539683 9.513802 9.513802 0 0 1-9.03209-2.167702 427.398517 427.398517 0 0 1-63.104205-101.520696c-0.842995-2.047274 0.963423-4.214976 1.806418-5.057971a221.82814 221.82814 0 0 0 64.910623-156.556233 221.707712 221.707712 0 0 0-65.512762-155.713238c-0.842995-0.842995-2.649413-3.010697-1.806418-5.057971a427.398517 427.398517 0 0 1 63.104205-101.520696 9.393374 9.393374 0 0 1 8.911662-2.167701 255.7888 255.7888 0 0 0 173.897847-24.92857 231.823653 231.823653 0 0 0 111.275353-130.302957 6.984817 6.984817 0 0 1 6.021394-4.937543 492.790851 492.790851 0 0 1 126.328837 0 6.984817 6.984817 0 0 1 6.021394 4.937543 231.823653 231.823653 0 0 0 111.275354 130.302957 255.547944 255.547944 0 0 0 173.777418 24.92857 9.513802 9.513802 0 0 1 9.032091 2.167701 423.063113 423.063113 0 0 1 62.983777 101.520696c0.963423 2.047274-0.842995 4.214976-1.68599 5.057971z" fill="#eee" p-id="21834"></path><path d="M512.086889 305.766366a206.292944 206.292944 0 1 0 206.172516 206.172517 206.413372 206.413372 0 0 0-206.172516-206.172517z m123.197713 206.172517a123.197713 123.197713 0 1 1-123.197713-123.077285 123.318141 123.318141 0 0 1 123.197713 123.077285z" fill="#eee" p-id="21835"></path></svg>