<svg t="1720817396308" class="icon" viewBox="0 0 1025 1024" version="1.1" xmlns="http://www.w3.org/2000/svg" p-id="23464" width="70" height="70"><path d="M548.283465 0c-135.458268 0-245.114961 91.91811-245.114961 203.187402v617.625196c0 112.88189 109.656693 203.187402 245.114961 203.187402 135.458268 0 245.114961-91.91811 245.11496-203.187402V203.187402C793.398425 91.91811 682.129134 0 548.283465 0z m169.322834 819.2c0 77.404724-75.792126 138.683465-169.322834 138.683465s-169.322835-62.891339-169.322835-138.683465V204.8c0-77.404724 75.792126-138.683465 169.322835-138.683465S717.606299 129.007874 717.606299 204.8v614.4z" p-id="23465" fill="#ccc"></path><path d="M519.256693 199.962205h56.440945v220.925984h-56.440945z" p-id="23466" fill="#ccc"></path><path d="M508.129764 202.542362l39.927937-39.895685 116.300598 116.300599-39.911811 39.911811z" p-id="23467" fill="#ccc"></path><path d="M470.362709 318.584945l-39.911811-39.911811 116.316724-116.300599 39.911811 39.911811z" p-id="23468" fill="#ccc"></path><path d="M519.256693 603.111811h56.440945v220.925984h-56.440945z" p-id="23469" fill="#ccc"></path><path d="M624.39811 705.108661l39.911811 39.911811-116.300598 116.300599-39.911811-39.895685z" p-id="23470" fill="#ccc"></path><path d="M586.631055 821.602772l-39.911811 39.911811-116.300598-116.316725 39.895685-39.911811z" p-id="23471" fill="#ccc"></path></svg>