<svg t="1719942520921" class="icon" viewBox="0 0 1024 1024" version="1.1" xmlns="http://www.w3.org/2000/svg" p-id="5938" width="30" height="30"><path d="M884.16 1024H139.776C97.984 1024 64 987.008 64 941.504v-227.392a32 32 0 0 1 64 0v227.392c0 10.56 6.208 18.496 11.776 18.496h744.384c5.568 0 11.84-7.936 11.84-18.496V82.56c0-10.624-6.272-18.56-11.84-18.56H139.776C134.208 64 128 71.936 128 82.56v227.392a32 32 0 1 1-64-0.064V82.56C64 37.056 97.984 0 139.776 0h744.384C926.016 0 960 37.056 960 82.56v858.944c0 45.504-33.984 82.496-75.84 82.496z" p-id="5939" fill="#eee"></path><path d="M656.896 544H96a32 32 0 0 1 0-64h560.896a32 32 0 0 1 0 64z" p-id="5940" fill="#eee"></path><path d="M558.208 695.552a32 32 0 0 1-24.448-52.608l128-151.616a32 32 0 0 1 48.896 41.28l-128 151.552a31.872 31.872 0 0 1-24.448 11.392z" p-id="5941" fill="#eee"></path><path d="M686.208 544a32 32 0 0 1-24.448-11.392l-128-151.552a31.872 31.872 0 1 1 48.832-41.28l128 151.616a32 32 0 0 1-24.384 52.608z" p-id="5942" fill="#eee"></path></svg>