<svg xmlns="http://www.w3.org/2000/svg" width="200" height="200" viewBox="0 0 32 32"><defs><linearGradient id="bgGradient" x1="0%" y1="0%" x2="100%" y2="100%"><stop offset="0%" style="stop-color:#a5b4fc"/><stop offset="50%" style="stop-color:#818cf8"/><stop offset="100%" style="stop-color:#6366f1"/></linearGradient><filter id="dropShadow" x="-20%" y="-20%" width="140%" height="140%"><feGaussianBlur in="SourceAlpha" stdDeviation="0.5"/><feOffset dx="0.2" dy="0.2"/><feComponentTransfer><feFuncA type="linear" slope="0.3"/></feComponentTransfer><feMerge><feMergeNode/><feMergeNode in="SourceGraphic"/></feMerge></filter></defs><rect x="0" y="0" width="32" height="32" rx="6" ry="6" fill="url(#bgGradient)"/><rect x="1" y="1" width="30" height="30" rx="5" ry="5" fill="none" stroke="white" stroke-opacity="0.1"/><circle cx="6" cy="6" r="0.8" fill="white" opacity="0.35"/><circle cx="8" cy="4" r="0.5" fill="white" opacity="0.25"/><circle cx="4" cy="8" r="0.6" fill="white" opacity="0.3"/><circle cx="28" cy="26" r="0.8" fill="white" opacity="0.35"/><circle cx="26" cy="28" r="0.5" fill="white" opacity="0.25"/><circle cx="29" cy="24" r="0.6" fill="white" opacity="0.3"/><path d="M20 18c1.8 0 3.2-1.4 3.2-3.2s-1.4-3.2-3.2-3.2h-0.4c-0.4-2.4-2.5-4.2-5-4.2-2.4 0-4.4 1.7-4.9 4-1.6-0.7-3.5 0.1-4 1.9-0.2 0.4-0.3 0.9-0.3 1.4-1.5 0-2.7 1.2-2.7 2.7s1.2 2.7 2.7 2.7h14.6z" fill="white" fill-opacity="0.94" filter="url(#dropShadow)"/><rect x="14" y="10" width="14" height="14" fill="white" stroke="#6366f1" stroke-width="0.5" rx="2.5" ry="2.5" filter="url(#dropShadow)"/><path d="M21 21v-7l-3 3M21 14l3 3" stroke="#818cf8" stroke-width="1.3" fill="none" stroke-linecap="round" stroke-linejoin="round"/><circle cx="25" cy="13" r="1.3" fill="#fbbf24" opacity="0.92"/><g stroke="#fbbf24" stroke-width="0.45" opacity="0.75" stroke-linecap="round"><line x1="25" y1="10.6" x2="25" y2="11.7"/><line x1="25" y1="14.3" x2="25" y2="15.4"/><line x1="22.6" y1="13" x2="23.7" y2="13"/><line x1="26.3" y1="13" x2="27.4" y2="13"/><line x1="23.4" y1="11.4" x2="24.3" y2="12.3"/><line x1="25.7" y1="13.7" x2="26.6" y2="14.6"/><line x1="23.4" y1="14.6" x2="24.3" y2="13.7"/><line x1="25.7" y1="12.3" x2="26.6" y2="11.4"/></g><circle cx="25.8" cy="12.2" r="0.38" fill="white" opacity="0.75"/><circle cx="24.2" cy="12.8" r="0.28" fill="white" opacity="0.55"/></svg>